# AST/ASF file generated using VICON BodyLanguage
# -----------------------------------------------
:version 1.10
:name VICON
:units
  mass 1.0
  length 0.45
  angle deg
:documentation
   .ast/.asf automatically generated from VICON data using
   VICON BodyBuilder and BodyLanguage model FoxedUp or BRILLIANT.MOD
:root
   order TX TY TZ RX RY RZ
   axis XYZ
   position 0 0 0  
   orientation 0 0 0 
:bonedata
  begin
     id 1 
     name lhipjoint
     direction 0.623415 -0.642378 0.445763 
     length 2.49859 
     axis 0 0 0  XYZ
  end
  begin
     id 2 
     name lfemur
     direction 0.34202 -0.939693 0  
     length 6.69689  
     axis 0 0 20  XYZ
    dof rx ry rz
    limits (-160.0 20.0)
           (-70.0 70.0)
           (-60.0 70.0)
  end
  begin
     id 3 
     name ltibia
     direction 0.34202 -0.939693 0   
     length 7.37574   
     axis 0 0 20   XYZ
    dof rx
    limits (-10.0 170.0)
  end
  begin
     id 4 
     name lfoot
     direction 0.084323 -0.231675 0.969132   
     length 2.09111   
     axis -90 7.62852e-016 20   XYZ
    dof rx rz
    limits (-45.0 90.0)
           (-70.0 20.0)
  end
  begin
     id 5 
     name ltoes
     direction 1.5357e-011 -4.21957e-011 1   
     length 1.04989   
     axis -90 7.62852e-016 20   XYZ
    dof rx
    limits (-90.0 20.0)
  end
  begin
     id 6 
     name rhipjoint
     direction -0.605402 -0.653903 0.45376   
     length 2.45455  
     axis 0 0 0  XYZ 
  end
  begin
     id 7 
     name rfemur
     direction -0.34202 -0.939693 0   
     length 6.64523   
     axis 0 0 -20   XYZ
    dof rx ry rz
    limits (-160.0 20.0)
           (-70.0 70.0)
           (-70.0 60.0)
  end
  begin
     id 8 
     name rtibia
     direction -0.34202 -0.939693 0   
     length 7.3339   
     axis 0 0 -20   XYZ
    dof rx
    limits (-10.0 170.0)
 end
 begin
     id 9 
     name rfoot
     direction -0.120854 -0.332043 0.93549   
     length 2.23135  
     axis -90 -7.62852e-016 -20   XYZ
    dof rx rz
    limits (-45.0 90.0)
           (-20.0 70.0)
  end
  begin
     id 10 
     name rtoes
     direction -1.53563e-011 -4.21914e-011 1   
     length 1.10614   
     axis -90 -7.62852e-016 -20   XYZ
    dof rx
    limits (-90.0 20.0)
  end
  begin
     id 11 
     name lowerback
     direction 0.0319682 0.998615 -0.0417941   
     length 2.02718   
     axis 0 0 0   XYZ
    dof rx ry rz
    limits (-20.0 45.0)
           (-30.0 30.0)
           (-30.0 30.0)
  end
  begin
     id 12 
     name upperback
     direction 7.63181e-005 0.995808 0.0914691   
     length 1.97539   
     axis 0 0 0   XYZ
    dof rx ry rz
    limits (-20.0 45.0)
           (-30.0 30.0)
           (-30.0 30.0)
  end
  begin
     id 13 
     name thorax
     direction -0.016423 0.993627 0.111514   
     length 2.00349   
     axis 0 0 0   XYZ
    dof rx ry rz
    limits (-20.0 45.0)
           (-30.0 30.0)
           (-30.0 30.0)
  end
  begin
     id 14 
     name lowerneck
     direction -0.174763 0.981668 -0.0760716   
     length 1.71436   
     axis 0 0 0   XYZ
    dof rx ry rz
    limits (-20.0 45.0)
           (-30.0 30.0)
           (-30.0 30.0)
  end
  begin
     id 15 
     name upperneck
     direction 0.345458 0.934587 -0.0848868   
     length 1.72805   
     axis 0 0 0   XYZ
    dof rx ry rz
    limits (-20.0 45.0)
           (-30.0 30.0)
           (-30.0 30.0)
  end
  begin
     id 16
     name head
     direction 0.13001 0.989848 -0.0574291  
     length 1.767  
     axis 0 0 0   XYZ
    dof rx ry rz
    limits (-20.0 45.0)
           (-30.0 30.0)
           (-30.0 30.0)
  end
  begin
     id 17 
     name lclavicle
     direction 0.952951 0.290122 0.0878234  
     length 3.54654  
     axis 0 0 0   XYZ
    dof ry rz
    limits (-20.0 10.0)
           (0.0 20.0)
  end
  begin
     id 18 
     name lhumerus
     direction 1 -4.48957e-011 -4.56525e-028   
     length 5.19807   
     axis 180 -30 -90   XYZ
    dof rx ry rz
    limits (-60.0 90.0)
           (-90.0 90.0)
           (-90.0 90.0)
  end
  begin
     id 19
     name lradius
     direction 1 -4.48979e-011 -2.0317e-027   
     length 3.0937   
     axis 180 -30 -90   XYZ
    dof rx
    limits (-10.0 170.0)
  end
  begin
     id 20
     name lwrist
     direction 1 -4.48953e-011 -3.05809e-027   
     length 1.54685   
     axis 8.48514e-016 90 90   XYZ
    dof ry
    limits (-180.0 0.0)
 end
  begin
     id 21 
     name lhand
     direction 1 -4.48952e-011 -6.11639e-027   
     length 0.672632   
     axis 3.9013e-015 90 90   XYZ
    dof rx rz
    limits (-90.0 90.0)
           (-45.0 45.0)
  end
  begin
     id 22 
     name lfingers
     direction 1 -4.48925e-011 -1.22426e-026   
     length 0.542293   
     axis 7.80276e-015 90 90   XYZ
    dof rx
    limits (0.0 90.0)
  end
  begin
     id 23
     name lthumb
     direction 0.707107 -6.3486e-011 0.707107   
     length 0.778628   
     axis -90 45 5.37419e-014   XYZ
    dof rx rz
    limits (-45.0 45.0)
           (-45.0 45.0)
  end
  begin
     id 24 
     name rclavicle
     direction -0.960732 0.273675 -0.0457849   
     length 3.52079  
     axis 0 0 0   XYZ 
    dof ry rz
    limits (-10.0 20.0)
           (-20.0 0.0)
  end
  begin
     id 25 
     name rhumerus
     direction -1 -4.48976e-011 -1.63613e-027  
     length 5.45222   
     axis 180 30 90   XYZ
    dof rx ry rz
    limits (-90.0 60.0)
           (-90.0 90.0)
           (-90.0 90.0)
  end
  begin
     id 26 
     name rradius
     direction -1 -4.48957e-011 -7.00033e-028   
     length 3.01284   
     axis 180 30 90   XYZ
    dof rx
    limits (-10.0 170.0)
  end
  begin
     id 27 
     name rwrist
     direction -1 -4.48983e-011 -3.05543e-027   
     length 1.50642   
     axis 8.48514e-016 -90 -90   XYZ
    dof ry
    limits (-180.0 0.0)
  end
  begin
     id 28
     name rhand
     direction -1 -4.48984e-011 -6.11072e-027   
     length 0.622296   
     axis 3.9013e-015 -90 -90   XYZ
    dof rx rz
    limits (-90.0 90.0)
           (-45.0 45.0)
  end
  begin
     id 29
     name rfingers
     direction -1 -4.48865e-011 -1.22637e-026   
     length 0.501711   
     axis 7.80276e-015 -90 -90   XYZ
    dof rx
    limits (0.0 90.0)
  end
  begin
     id 30
     name rthumb
     direction -0.707107 -6.34932e-011 0.707107   
     length 0.72036   
     axis -90 -45 -5.37419e-014   XYZ
    dof rx rz
    limits (-45.0 45.0)
           (-45.0 45.0)
  end
:hierarchy
  begin
    root lhipjoint rhipjoint lowerback
    lhipjoint lfemur
    lfemur ltibia
    ltibia lfoot
    lfoot ltoes
    rhipjoint rfemur
    rfemur rtibia
    rtibia rfoot
    rfoot rtoes
    lowerback upperback
    upperback thorax
    thorax lowerneck lclavicle rclavicle
    lowerneck upperneck
    upperneck head
    lclavicle lhumerus
    lhumerus lradius
    lradius lwrist
    lwrist lhand lthumb
    lhand lfingers
    rclavicle rhumerus
    rhumerus rradius
    rradius rwrist
    rwrist rhand rthumb
    rhand rfingers
  end

#!OML:ASF H:\Not Pregnant\Project 1\Capture day 1\Session 1\non-pregnant.ASF
:FULLY-SPECIFIED
:DEGREES
35
root -5.7112 16.3502 35.0781 150.618 -82.5586 -137.381
lowerback -14.6878 2.92985 3.42232
upperback -6.12722 3.09247 -0.428833
thorax 1.95429 1.35074 -1.8809
lowerneck 19.0413 -8.26628 -30.4101
upperneck -6.54114 -19.5888 45.2267
head 3.85258 -13.1149 24.4687
rclavicle 4.54223e-014 2.70347e-014
rhumerus -36.2425 12.9496 -98.8276
rradius 28.9854
rwrist 22.0318
rhand -5.61476 5.94372
rfingers 7.12502
rthumb 20.2026 -23.0257
lclavicle 4.54223e-014 2.70347e-014
lhumerus -41.8166 -8.38513 90.0861
lradius 34.3808
lwrist 50.6367
lhand 12.9166 -5.70032
lfingers 7.12502
lthumb 37.8871 20.1295
rfemur 0 0 0
rtibia 0
rfoot 0 0
rtoes 0
lfemur -16.616 5.96448 -16.4536
ltibia 15.8181
lfoot -13.5842 -5.01437
ltoes -16.7059
36
root -5.71135 16.3503 35.0774 150.707 -82.5761 -137.467
lowerback -14.6901 2.93224 3.39723
upperback -6.125 3.09921 -0.432066
thorax 1.95723 1.35457 -1.86892
lowerneck 19.0416 -8.26916 -30.4189
upperneck -6.55047 -19.595 45.2358
head 3.85673 -13.1195 24.4774
rclavicle -3.14577e-014 -1.98785e-014
rhumerus -36.2039 12.5764 -98.7116
rradius 29.0561
rwrist 22.4711
rhand -5.38661 6.07742
rfingers 7.12502
rthumb 20.4219 -22.8687
lclavicle -3.14577e-014 -1.98785e-014
lhumerus -41.8176 -8.42563 90.1396
lradius 34.3206
lwrist 50.3725
lhand 12.7806 -6.01774
lfingers 7.12502
lthumb 37.7587 19.8467
rfemur 0 0 0
rtibia 0
rfoot 0 0
rtoes 0
lfemur -16.6128 5.95599 -16.4722
ltibia 15.8032
lfoot -13.5738 -5.02509
ltoes -16.6546
37
root -5.71132 16.3505 35.077 150.878 -82.5997 -137.631
lowerback -14.6913 2.93504 3.36119
upperback -6.12363 3.10802 -0.43586
thorax 1.9583 1.35952 -1.85109
lowerneck 19.0371 -8.27341 -30.4382
upperneck -6.55875 -19.6058 45.2466
head 3.86656 -13.1262 24.4889
rclavicle 2.35063e-014 -1.15295e-014
rhumerus -36.1831 12.1983 -98.5763
rradius 29.218
rwrist 22.9772
rhand -5.09763 6.2606
rfingers 7.12502
rthumb 20.6996 -22.6555
lclavicle 2.35063e-014 -1.15295e-014
lhumerus -41.815 -8.46308 90.2003
lradius 34.2492
lwrist 50.0385
lhand 12.6323 -6.37326
lfingers 7.12502
lthumb 37.6185 19.5288
rfemur 0 0 0
rtibia 0
rfoot 0 0
rtoes 0
lfemur -16.6065 5.95366 -16.507
ltibia 15.7727
lfoot -13.5583 -5.04019
ltoes -16.6314
38
root -5.71109 16.3506 35.0766 151.084 -82.625 -137.832
lowerback -14.6875 2.93924 3.31721
upperback -6.12131 3.12008 -0.438534
thorax 1.95742 1.36626 -1.82727
lowerneck 19.0279 -8.28129 -30.4652
upperneck -6.57171 -19.623 45.2621
head 3.8817 -13.1366 24.5039
rclavicle 1.22253e-014 1.35174e-014
rhumerus -36.2261 12.0363 -98.4626
rradius 29.5653
rwrist 23.3702
rhand -4.76548 6.49371
rfingers 7.12502
rthumb 21.0187 -22.3873
lclavicle 1.22253e-014 1.35174e-014
lhumerus -41.7989 -8.47017 90.2391
lradius 34.2027
lwrist 49.8532
lhand 12.5546 -6.57866
lfingers 7.12502
lthumb 37.5451 19.3429
rfemur 0 0 0
rtibia 0
rfoot 0 0
rtoes 0
lfemur -16.598 5.95761 -16.5479
ltibia 15.7372
lfoot -13.5414 -5.06183
ltoes -16.6239
39
root -5.71054 16.3507 35.0766 151.355 -82.6522 -138.095
lowerback -14.6792 2.94838 3.27596
upperback -6.11896 3.13883 -0.448796
thorax 1.95507 1.37626 -1.81196
lowerneck 19.0128 -8.29247 -30.4906
upperneck -6.58951 -19.6429 45.2825
head 3.89905 -13.1486 24.5202
rclavicle -6.06293e-015 0
rhumerus -36.333 12.082 -98.3788
rradius 30.1161
rwrist 23.7081
rhand -4.39818 6.82101
rfingers 7.12502
rthumb 21.3715 -22.0204
lclavicle -6.06293e-015 0
lhumerus -41.7651 -8.44474 90.2431
lradius 34.1897
lwrist 49.8475
lhand 12.5568 -6.58719
lfingers 7.12502
lthumb 37.5472 19.3338
rfemur 0 0 0
rtibia 0
rfoot 0 0
rtoes 0
lfemur -16.5934 5.96109 -16.5994
ltibia 15.7008
lfoot -13.5224 -5.07702
ltoes -16.6322
40
root -5.70979 16.3507 35.0765 151.517 -82.6701 -138.253
lowerback -14.6603 2.95913 3.25197
upperback -6.11352 3.1581 -0.458433
thorax 1.95119 1.38647 -1.80595
lowerneck 18.989 -8.30821 -30.503
upperneck -6.61525 -19.6622 45.3062
head 3.91449 -13.1599 24.5331
rclavicle -7.05686e-015 -1.07344e-014
rhumerus -36.5178 12.3762 -98.3427
rradius 30.8973
rwrist 24.0551
rhand -4.06851 7.28773
rfingers 7.12502
rthumb 21.6882 -21.5174
lclavicle -7.05686e-015 -1.07344e-014
lhumerus -41.7169 -8.40166 90.2227
lradius 34.1888
lwrist 49.8531
lhand 12.578 -6.50724
lfingers 7.12502
lthumb 37.5672 19.4084
rfemur 0 0 0
rtibia 0
rfoot 0 0
rtoes 0
lfemur -16.588 5.96065 -16.6304
ltibia 15.6722
lfoot -13.5055 -5.08458
ltoes -16.6439
41
root -5.70872 16.3509 35.0768 151.665 -82.6887 -138.397
lowerback -14.6322 2.97211 3.23445
upperback -6.10648 3.18025 -0.473677
thorax 1.94485 1.39811 -1.80929
lowerneck 18.962 -8.32753 -30.496
upperneck -6.65758 -19.6756 45.334
head 3.92113 -13.1683 24.5429
rclavicle -1.67476e-014 -2.78299e-015
rhumerus -36.7566 12.8013 -98.3229
rradius 31.8758
rwrist 24.6056
rhand -3.84191 7.9149
rfingers 7.12502
rthumb 21.9058 -20.865
lclavicle -1.67476e-014 -2.78299e-015
lhumerus -41.6604 -8.36156 90.1941
lradius 34.19
lwrist 49.8336
lhand 12.5866 -6.41745
lfingers 7.12502
lthumb 37.5753 19.4961
rfemur 0 0 0
rtibia 0
rfoot 0 0
rtoes 0
lfemur -16.5876 5.94759 -16.6596
ltibia 15.6531
lfoot -13.49 -5.08057
ltoes -16.6457
42
root -5.70735 16.351 35.077 151.696 -82.6964 -138.426
lowerback -14.5921 2.9887 3.22511
upperback -6.09828 3.20651 -0.48158
thorax 1.9336 1.41182 -1.80933
lowerneck 18.938 -8.35015 -30.4736
upperneck -6.72346 -19.6818 45.3629
head 3.91506 -13.173 24.5491
rclavicle 1.49585e-014 2.78299e-015
rhumerus -37.0424 13.2722 -98.3091
rradius 33.029
rwrist 25.5318
rhand -3.78273 8.79575
rfingers 7.12502
rthumb 21.9626 -19.9775
lclavicle 1.49585e-014 2.78299e-015
lhumerus -41.5997 -8.33227 90.1813
lradius 34.1717
lwrist 49.6928
lhand 12.5459 -6.42099
lfingers 7.12502
lthumb 37.5368 19.5028
rfemur 0 0 0
rtibia 0
rfoot 0 0
rtoes 0
lfemur -16.5905 5.92213 -16.6651
ltibia 15.6458
lfoot -13.4758 -5.06016
ltoes -16.6353
43
root -5.70567 16.3512 35.0772 151.701 -82.6977 -138.431
lowerback -14.5429 3.01069 3.21564
upperback -6.08843 3.24045 -0.487213
thorax 1.91948 1.4295 -1.80601
lowerneck 18.9212 -8.37843 -30.4383
upperneck -6.81819 -19.6863 45.3973
head 3.89818 -13.178 24.555
rclavicle -3.85145e-014 -1.19271e-015
rhumerus -37.3733 13.8039 -98.3329
rradius 34.3509
rwrist 26.8366
rhand -4.02567 9.80139
rfingers 7.12502
rthumb 21.7293 -18.999
lclavicle -3.85145e-014 -1.19271e-015
lhumerus -41.5401 -8.33603 90.1979
lradius 34.1246
lwrist 49.3946
lhand 12.4266 -6.59809
lfingers 7.12502
lthumb 37.4241 19.3555
rfemur 0 0 0
rtibia 0
rfoot 0 0
rtoes 0
lfemur -16.5971 5.88605 -16.6611
ltibia 15.6481
lfoot -13.4626 -5.02581
ltoes -16.615
44
root -5.70366 16.3514 35.0776 151.714 -82.6962 -138.441
lowerback -14.487 3.03452 3.19765
upperback -6.0785 3.27804 -0.48482
thorax 1.9012 1.44918 -1.78924
lowerneck 18.9175 -8.40725 -30.4035
upperneck -6.9439 -19.6845 45.4341
head 3.86779 -13.1808 24.5652
rclavicle -5.46658e-015 -7.95139e-015
rhumerus -37.7209 14.3301 -98.3349
rradius 35.8028
rwrist 28.6956
rhand -4.51223 11.0385
rfingers 7.12502
rthumb 21.262 -17.8152
lclavicle -5.46658e-015 -7.95139e-015
lhumerus -41.4826 -8.34233 90.2359
lradius 34.0662
lwrist 49.0544
lhand 12.2839 -6.86069
lfingers 7.12502
lthumb 37.2892 19.1285
rfemur 0 0 0
rtibia 0
rfoot 0 0
rtoes 0
lfemur -16.6081 5.846 -16.6556
ltibia 15.6556
lfoot -13.4506 -4.98262
ltoes -16.6087
45
root -5.70149 16.3515 35.0775 151.688 -82.6854 -138.414
lowerback -14.4263 3.06018 3.18324
upperback -6.06701 3.31766 -0.476128
thorax 1.88187 1.46995 -1.7678
lowerneck 18.9267 -8.43415 -30.3714
upperneck -7.09535 -19.676 45.4757
head 3.82624 -13.1822 24.5836
rclavicle 2.22639e-014 -5.56597e-015
rhumerus -38.0728 14.851 -98.3307
rradius 37.3674
rwrist 31.1325
rhand -5.30088 12.4371
rfingers 7.12502
rthumb 20.5043 -16.5001
lclavicle 2.22639e-014 -5.56597e-015
lhumerus -41.4281 -8.34626 90.2802
lradius 34.0045
lwrist 48.6883
lhand 12.1316 -7.16939
lfingers 7.12502
lthumb 37.1452 18.8574
rfemur 0 0 0
rtibia 0
rfoot 0 0
rtoes 0
lfemur -16.6166 5.81487 -16.6388
ltibia 15.6611
lfoot -13.4387 -4.94044
ltoes -16.6263
46
root -5.69949 16.3516 35.0774 151.726 -82.6861 -138.454
lowerback -14.3672 3.07515 3.15323
upperback -6.05366 3.34498 -0.461817
thorax 1.86347 1.48493 -1.73372
lowerneck 18.9459 -8.45018 -30.3567
upperneck -7.265 -19.6517 45.518
head 3.77297 -13.1764 24.6156
rclavicle 4.96962e-017 -1.98785e-015
rhumerus -38.4563 15.5317 -98.3359
rradius 39.0908
rwrist 34.0073
rhand -6.39796 13.8375
rfingers 7.12502
rthumb 19.4498 -15.2097
lclavicle 4.96962e-017 -1.98785e-015
lhumerus -41.3763 -8.29474 90.3026
lradius 33.9656
lwrist 48.4145
lhand 12.0448 -7.38513
lfingers 7.12502
lthumb 37.0631 18.663
rfemur 0 0 0
rtibia 0
rfoot 0 0
rtoes 0
lfemur -16.6214 5.79647 -16.6395
ltibia 15.6611
lfoot -13.4269 -4.92187
ltoes -16.6421
